<svg width="60" height="60" viewBox="0 0 60 60" fill="none" xmlns="http://www.w3.org/2000/svg">
<path d="M0 30C0 13.4315 13.4315 0 30 0C46.5685 0 60 13.4315 60 30C60 46.5685 46.5685 60 30 60C13.4315 60 0 46.5685 0 30Z" fill="#F7F7F7"/>
<g clip-path="url(#clip0_395_233)">
<path d="M43.3333 31.332V40.6667C43.3333 41.0203 43.1929 41.3594 42.9428 41.6095C42.6928 41.8595 42.3536 42 42 42H31.3333V31.332H43.3333ZM28.6667 31.332V42H18C17.6464 42 17.3072 41.8595 17.0572 41.6095C16.8071 41.3594 16.6667 41.0203 16.6667 40.6667V31.332H28.6667ZM28.6667 18V28.6653H16.6667V19.3333C16.6667 18.9797 16.8071 18.6406 17.0572 18.3905C17.3072 18.1405 17.6464 18 18 18H28.6667ZM42 18C42.3536 18 42.6928 18.1405 42.9428 18.3905C43.1929 18.6406 43.3333 18.9797 43.3333 19.3333V28.6653H31.3333V18H42Z" fill="#8A8A8A"/>
</g>
<defs>
<clipPath id="clip0_395_233">
<rect width="32" height="32" fill="white" transform="translate(14 14)"/>
</clipPath>
</defs>
</svg>
