<svg width="60" height="60" viewBox="0 0 60 60" fill="none" xmlns="http://www.w3.org/2000/svg">
<path d="M0 30C0 13.4315 13.4315 0 30 0C46.5685 0 60 13.4315 60 30C60 46.5685 46.5685 60 30 60C13.4315 60 0 46.5685 0 30Z" fill="#F7F7F7"/>
<g clip-path="url(#clip0_416_41)">
<path d="M21.112 20.06C22.481 18.8337 24.0889 17.904 25.8347 17.3293C26.3338 17.9547 26.9676 18.4595 27.6887 18.8062C28.4098 19.153 29.1998 19.3327 30 19.332C30.8002 19.3327 31.5902 19.153 32.3113 18.8062C33.0324 18.4595 33.6662 17.9547 34.1653 17.3293C35.9111 17.904 37.519 18.8337 38.888 20.06C38.5967 20.8046 38.4768 21.6053 38.5373 22.4025C38.5978 23.1998 38.837 23.9732 39.2373 24.6653C39.6368 25.3588 40.1875 25.9533 40.8484 26.4046C41.5092 26.8559 42.2634 27.1524 43.0547 27.272C43.4287 29.0705 43.4287 30.9268 43.0547 32.7253C41.508 32.9627 40.0813 33.872 39.2373 35.332C38.8368 36.0243 38.5974 36.798 38.537 37.5955C38.4765 38.393 38.5965 39.1939 38.888 39.9387C37.5189 41.1645 35.911 42.0938 34.1653 42.668C33.666 42.0429 33.0323 41.5383 32.3111 41.1919C31.59 40.8454 30.8001 40.6659 30 40.6667C29.1998 40.666 28.4098 40.8457 27.6887 41.1925C26.9676 41.5392 26.3338 42.044 25.8347 42.6693C24.089 42.0951 22.4811 41.1658 21.112 39.94C21.4035 39.1952 21.5235 38.3943 21.463 37.5968C21.4026 36.7993 21.1632 36.0256 20.7627 35.3333C20.3631 34.6401 19.8123 34.0459 19.1514 33.5949C18.4906 33.1438 17.7365 32.8475 16.9453 32.728C16.5711 30.929 16.5711 29.0723 16.9453 27.2733C17.7366 27.1537 18.4908 26.8572 19.1517 26.4059C19.8125 25.9546 20.3632 25.3601 20.7627 24.6667C21.163 23.9745 21.4022 23.2011 21.4627 22.4039C21.5232 21.6066 21.4033 20.8059 21.112 20.0613V20.06ZM32 33.4627C32.4586 33.2019 32.8611 32.8531 33.1843 32.4362C33.5075 32.0193 33.745 31.5425 33.8832 31.0334C34.0215 30.5244 34.0576 29.993 33.9896 29.4698C33.9216 28.9467 33.7508 28.4422 33.4871 27.9854C33.2233 27.5285 32.8718 27.1284 32.4527 26.8079C32.0337 26.4875 31.5554 26.2531 31.0454 26.1183C30.5354 25.9834 30.0038 25.9508 29.4811 26.0223C28.9584 26.0937 28.4551 26.2679 28 26.5347C27.0888 27.0689 26.4258 27.9418 26.1559 28.963C25.8859 29.9842 26.0308 31.0707 26.5589 31.9855C27.087 32.9002 27.9556 33.5689 28.9749 33.8457C29.9943 34.1224 31.0818 33.9847 32 33.4627Z" fill="#8A8A8A"/>
</g>
<defs>
<clipPath id="clip0_416_41">
<rect width="32" height="32" fill="white" transform="translate(14 14)"/>
</clipPath>
</defs>
</svg>
